<svg width="170" height="170" viewBox="0 0 170 170" fill="none" xmlns="http://www.w3.org/2000/svg">
<g clip-path="url(#clip0_29_58)">
<path d="M60.85 115.79C63.3067 115.79 65.2867 115.185 66.79 113.975C68.33 112.765 69.1 110.987 69.1 108.64C69.1 106.77 68.5317 105.212 67.395 103.965C66.2583 102.682 64.2783 101.655 61.455 100.885L57.66 99.785C54.8733 99.015 52.7467 97.7133 51.28 95.88C49.8133 94.0467 49.08 91.81 49.08 89.17C49.08 87.41 49.4833 85.76 50.29 84.22C51.1333 82.68 52.3983 81.4333 54.085 80.48C55.8083 79.5267 57.99 79.05 60.63 79.05C63.5633 79.05 65.9283 79.6 67.725 80.7C69.5217 81.7633 70.7683 83.1567 71.465 84.88C72.1617 86.6033 72.3267 88.455 71.96 90.435L67.34 91.425C67.8167 88.015 67.4683 85.3933 66.295 83.56C65.1583 81.7267 63.1783 80.81 60.355 80.81C58.1183 80.81 56.3583 81.415 55.075 82.625C53.7917 83.7983 53.15 85.5217 53.15 87.795C53.15 89.5917 53.6633 91.1317 54.69 92.415C55.7167 93.6617 57.5317 94.6517 60.135 95.385L63.93 96.485C70.0533 98.1717 73.115 101.747 73.115 107.21C73.115 109.153 72.6567 110.913 71.74 112.49C70.86 114.03 69.5033 115.258 67.67 116.175C65.8733 117.092 63.6 117.55 60.85 117.55C58.9433 117.55 57.11 117.257 55.35 116.67C53.6267 116.083 52.1417 115.075 50.895 113.645C49.685 112.215 48.8783 110.235 48.475 107.705L51.775 106.605C51.9583 109.025 52.49 110.895 53.37 112.215C54.25 113.535 55.35 114.47 56.67 115.02C57.99 115.533 59.3833 115.79 60.85 115.79ZM108.417 115.57V117H95.4368V115.57L98.4618 115.24C99.0485 115.167 99.3968 115.02 99.5068 114.8C99.6168 114.58 99.6718 113.828 99.6718 112.545V98.85C99.6718 96.1367 99.2318 94.23 98.3518 93.13C97.4718 91.9933 96.2252 91.425 94.6118 91.425C93.3652 91.425 92.0085 91.7917 90.5418 92.525C89.0752 93.2583 87.7002 94.7067 86.4168 96.87V112.545C86.4168 113.828 86.4718 114.58 86.5818 114.8C86.6918 115.02 87.0402 115.167 87.6268 115.24L90.6518 115.57V117H77.6718V115.57L80.6968 115.24C81.2835 115.167 81.6318 115.02 81.7418 114.8C81.8518 114.58 81.9068 113.828 81.9068 112.545V80.755C81.9068 79.4717 81.8518 78.72 81.7418 78.5C81.6318 78.28 81.2835 78.1333 80.6968 78.06L77.6718 77.785V76.3H86.4168V93.955C87.7002 92.305 89.1668 91.1133 90.8168 90.38C92.4668 89.61 94.0985 89.225 95.7118 89.225C98.4252 89.225 100.515 90.0683 101.982 91.755C103.449 93.405 104.182 95.7517 104.182 98.795V112.545C104.182 113.828 104.237 114.58 104.347 114.8C104.457 115.02 104.805 115.167 105.392 115.24L108.417 115.57ZM136.926 102.81V103.91C136.926 108.053 135.881 111.372 133.791 113.865C131.738 116.322 128.805 117.55 124.991 117.55C121.215 117.55 118.281 116.322 116.191 113.865C114.138 111.372 113.111 108.053 113.111 103.91V102.81C113.111 98.7033 114.138 95.4217 116.191 92.965C118.245 90.4717 121.178 89.225 124.991 89.225C128.805 89.225 131.738 90.4717 133.791 92.965C135.881 95.4217 136.926 98.7033 136.926 102.81ZM131.976 101.71C131.976 97.8967 131.371 95.165 130.161 93.515C128.988 91.8283 127.265 90.985 124.991 90.985C122.755 90.985 121.031 91.8283 119.821 93.515C118.648 95.165 118.061 97.8967 118.061 101.71V105.01C118.061 108.86 118.648 111.628 119.821 113.315C121.031 114.965 122.755 115.79 124.991 115.79C127.265 115.79 128.988 114.965 130.161 113.315C131.371 111.628 131.976 108.86 131.976 105.01V101.71ZM141.856 91.205V89.775H150.326V94.175C151.426 92.4517 152.655 91.205 154.011 90.435C155.405 89.6283 156.945 89.225 158.631 89.225C161.785 89.225 164.223 90.4167 165.946 92.8C167.706 95.1833 168.586 98.52 168.586 102.81V103.91C168.586 108.09 167.578 111.408 165.561 113.865C163.545 116.322 160.74 117.55 157.146 117.55C154.58 117.55 152.398 116.762 150.601 115.185V124.26C150.601 125.507 150.656 126.24 150.766 126.46C150.876 126.717 151.225 126.882 151.811 126.955L155.936 127.23V128.715H141.856V127.23L144.881 126.955C145.468 126.882 145.816 126.717 145.926 126.46C146.036 126.24 146.091 125.507 146.091 124.26V94.23C146.091 92.9467 146.036 92.195 145.926 91.975C145.816 91.755 145.468 91.6083 144.881 91.535L141.856 91.205ZM157.916 91.205C156.78 91.205 155.588 91.5717 154.341 92.305C153.131 93.0383 151.885 94.5233 150.601 96.76V112.49C152.178 114.653 154.268 115.735 156.871 115.735C159.255 115.735 160.978 114.837 162.041 113.04C163.105 111.207 163.636 108.713 163.636 105.56V101.16C163.636 97.7133 163.141 95.2017 162.151 93.625C161.161 92.0117 159.75 91.205 157.916 91.205Z" fill="black"/>
<path d="M0.64 45.085V43.6H15.6C19.1933 43.6 21.8883 44.4433 23.685 46.13C25.4817 47.78 26.38 49.9067 26.38 52.51V53.995C26.38 55.9017 25.8117 57.5333 24.675 58.89C23.5383 60.2467 21.9433 61.2 19.89 61.75C22.4567 62.19 24.455 63.1617 25.885 64.665C27.315 66.1683 28.03 68.0567 28.03 70.33V71.815C28.03 74.4917 27.095 76.6917 25.225 78.415C23.3917 80.1383 20.6417 81 16.975 81H0.64V79.57L3.665 79.24C4.25167 79.1667 4.6 79.02 4.71 78.8C4.82 78.58 4.875 77.8283 4.875 76.545V48.055C4.875 46.7717 4.82 46.02 4.71 45.8C4.6 45.58 4.25167 45.4333 3.665 45.36L0.64 45.085ZM15.6 45.36H9.66V61.09H15.6C19.4133 61.09 21.32 58.8717 21.32 54.435V52.18C21.32 47.6333 19.4133 45.36 15.6 45.36ZM16.975 62.85H9.66V79.24H16.975C20.9717 79.24 22.97 76.875 22.97 72.145V69.89C22.97 67.6167 22.4567 65.875 21.43 64.665C20.44 63.455 18.955 62.85 16.975 62.85ZM33.2258 55.26V53.775H41.6958V58.175C42.9791 56.4517 44.2624 55.205 45.5458 54.435C46.8658 53.6283 48.2041 53.225 49.5608 53.225C50.7341 53.225 51.8341 53.5733 52.8608 54.27C53.8874 54.9667 54.7491 56.085 55.4458 57.625L51.8708 59.77C51.3208 58.45 50.6974 57.5333 50.0008 57.02C49.3041 56.5067 48.5341 56.25 47.6908 56.25C46.7741 56.25 45.8574 56.5433 44.9408 57.13C44.0608 57.7167 43.0708 58.8167 41.9708 60.43V76.545C41.9708 77.8283 42.0258 78.5983 42.1358 78.855C42.2458 79.075 42.5941 79.2033 43.1808 79.24L47.3058 79.57V81H33.2258V79.57L36.2508 79.24C36.8374 79.1667 37.1858 79.02 37.2958 78.8C37.4058 78.58 37.4608 77.8283 37.4608 76.545V58.23C37.4608 56.9467 37.4058 56.195 37.2958 55.975C37.1858 55.755 36.8374 55.6083 36.2508 55.535L33.2258 55.26ZM80.5034 74.73C79.8434 77.2233 78.5968 78.9833 76.7634 80.01C74.9668 81.0367 72.9684 81.55 70.7684 81.55C66.6984 81.55 63.6551 80.3217 61.6384 77.865C59.6218 75.3717 58.6134 72.0533 58.6134 67.91V66.81C58.6134 62.7033 59.5851 59.4217 61.5284 56.965C63.4718 54.4717 66.2951 53.225 69.9984 53.225C71.9784 53.225 73.7751 53.6283 75.3884 54.435C77.0384 55.2417 78.3401 56.4333 79.2934 58.01C80.2834 59.5867 80.7784 61.5483 80.7784 63.895C80.7784 64.995 80.6684 66.15 80.4484 67.36H63.5634V69.01C63.5634 72.86 64.1501 75.6283 65.3234 77.315C66.5334 78.965 68.4768 79.79 71.1534 79.79C72.8401 79.79 74.2334 79.35 75.3334 78.47C76.4701 77.59 77.2218 76.0683 77.5884 73.905L80.5034 74.73ZM69.9984 54.985C67.8351 54.985 66.2218 55.81 65.1584 57.46C64.0951 59.11 63.5634 61.8233 63.5634 65.6H75.9384V65.435C76.0118 64.9583 76.0668 64.5 76.1034 64.06C76.1401 63.5833 76.1584 63.1617 76.1584 62.795C76.1584 60.045 75.5901 58.065 74.4534 56.855C73.3168 55.6083 71.8318 54.985 69.9984 54.985ZM108.63 81.385C105.77 81.385 104.083 80.065 103.57 77.425C102.287 78.8917 100.875 79.955 99.3349 80.615C97.7949 81.2383 96.2733 81.55 94.7699 81.55C92.2033 81.55 90.3149 80.835 89.1049 79.405C87.8949 77.975 87.2899 76.2517 87.2899 74.235C87.2899 72.0717 88.0233 70.3667 89.4899 69.12C90.9933 67.8367 93.5783 67.195 97.2449 67.195H103.46V62.74C103.46 59.8067 102.947 57.79 101.92 56.69C100.93 55.5533 99.5733 54.985 97.8499 54.985C96.7499 54.985 95.7599 55.205 94.8799 55.645C93.9999 56.085 93.3583 56.8917 92.9549 58.065C92.5883 59.2017 92.5516 60.87 92.8449 63.07L88.4999 62.41C88.3166 60.6867 88.5366 59.1467 89.1599 57.79C89.8199 56.3967 90.8833 55.2967 92.3499 54.49C93.8533 53.6467 95.7233 53.225 97.9599 53.225C100.637 53.225 102.69 53.6833 104.12 54.6C105.55 55.48 106.54 56.635 107.09 58.065C107.677 59.495 107.97 61.0533 107.97 62.74V75.115C107.97 76.985 108.172 78.1583 108.575 78.635C109.015 79.1117 109.492 79.35 110.005 79.35C110.335 79.35 110.683 79.2767 111.05 79.13C111.417 78.9467 111.82 78.6717 112.26 78.305L113.25 79.68C112.7 80.1567 112.04 80.56 111.27 80.89C110.537 81.22 109.657 81.385 108.63 81.385ZM96.3099 79.24C97.3366 79.24 98.4366 78.965 99.6099 78.415C100.82 77.8283 102.103 76.6733 103.46 74.95V68.955H97.8499C95.7966 68.955 94.2933 69.3767 93.3399 70.22C92.4233 71.0267 91.9649 72.2917 91.9649 74.015C91.9649 75.665 92.3133 76.9483 93.0099 77.865C93.7433 78.7817 94.8433 79.24 96.3099 79.24ZM144.107 79.625V81H135.637V76.655C134.5 78.3417 133.235 79.5883 131.842 80.395C130.485 81.165 128.964 81.55 127.277 81.55C124.124 81.55 121.667 80.3767 119.907 78.03C118.184 75.6467 117.322 72.2917 117.322 67.965V66.865C117.322 62.7217 118.33 59.4217 120.347 56.965C122.4 54.4717 125.205 53.225 128.762 53.225C131.365 53.225 133.565 54.0317 135.362 55.645V44.755C135.362 43.4717 135.307 42.72 135.197 42.5C135.087 42.28 134.739 42.1333 134.152 42.06L131.127 41.785V40.3H139.872V76.545C139.872 77.8283 139.927 78.58 140.037 78.8C140.147 79.02 140.495 79.1667 141.082 79.24L144.107 79.625ZM122.272 69.615C122.272 73.0617 122.767 75.5917 123.757 77.205C124.784 78.8183 126.195 79.625 127.992 79.625C129.165 79.625 130.375 79.2583 131.622 78.525C132.869 77.7917 134.115 76.3067 135.362 74.07V58.34C133.749 56.1767 131.64 55.095 129.037 55.095C126.69 55.095 124.967 55.9933 123.867 57.79C122.804 59.5867 122.272 62.0617 122.272 65.215V69.615Z" fill="black"/>
</g>
<defs>
<clipPath id="clip0_29_58">
<rect width="170" height="170" fill="white"/>
</clipPath>
</defs>
</svg>
