<svg width="300" height="300" viewBox="0 0 300 300" fill="none" xmlns="http://www.w3.org/2000/svg">
<g clip-path="url(#clip0_155_42)">
<g filter="url(#filter0_f_155_42)">
<circle cx="149.5" cy="161.5" r="95.5" fill="#FFB178" fill-opacity="0.66"/>
</g>
<path d="M44.1177 163.765V104.629C44.1177 88.7525 56.9879 75.8823 72.8641 75.8823C88.7401 75.8823 101.61 88.7525 101.61 104.629V144.342C101.61 146.014 101.61 146.851 101.632 147.558C102.38 172.178 122.164 191.961 146.784 192.711C147.491 192.732 148.328 192.732 150 192.732C151.673 192.732 152.509 192.732 153.216 192.711C177.837 191.961 197.62 172.178 198.369 147.558C198.39 146.851 198.39 146.014 198.39 144.342V104.629C198.39 88.7525 211.259 75.8823 227.135 75.8823C243.011 75.8823 255.882 88.7525 255.882 104.629V163.765C255.882 202.564 255.882 221.964 245.042 234.935C243.263 237.063 241.298 239.028 239.17 240.807C226.199 251.647 206.8 251.647 168 251.647H132C93.2009 251.647 73.8016 251.647 60.8304 240.807C58.7019 239.028 56.7367 237.063 54.9579 234.935C44.1177 221.964 44.1177 202.564 44.1177 163.765Z" fill="white" stroke="black" stroke-width="3.5"/>
<path d="M227.294 75.8823H74.8236C59.0348 75.8823 46.2354 88.6818 46.2354 104.471C46.2354 120.259 59.0348 133.059 74.8236 133.059H227.294C243.083 133.059 255.882 120.259 255.882 104.471C255.882 88.6818 243.083 75.8823 227.294 75.8823Z" fill="white" fill-opacity="0.25" stroke="black" stroke-width="3.5"/>
</g>
<defs>
<filter id="filter0_f_155_42" x="-12.8" y="-0.800003" width="324.6" height="324.6" filterUnits="userSpaceOnUse" color-interpolation-filters="sRGB">
<feFlood flood-opacity="0" result="BackgroundImageFix"/>
<feBlend mode="normal" in="SourceGraphic" in2="BackgroundImageFix" result="shape"/>
<feGaussianBlur stdDeviation="33.4" result="effect1_foregroundBlur_155_42"/>
</filter>
<clipPath id="clip0_155_42">
<rect width="300" height="300" fill="white"/>
</clipPath>
</defs>
</svg>
