<svg width="300" height="300" viewBox="0 0 300 300" fill="none" xmlns="http://www.w3.org/2000/svg">
<g clip-path="url(#clip0_120_58)">
<g filter="url(#filter0_f_120_58)">
<circle cx="165.5" cy="143.5" r="84.5" fill="#FFB178" fill-opacity="0.4"/>
</g>
<path d="M102.5 149H50.8556C47.7926 149 45.8662 145.698 47.3733 143.032L62.5177 116.238C64.541 112.658 70 114.094 70 118.206V188M108 170.5H99.5C95.634 170.5 92.5 173.634 92.5 177.5V192.5C92.5 196.366 95.634 199.5 99.5 199.5H113C116.866 199.5 120 196.366 120 192.5V177.5C120 173.634 116.866 170.5 113 170.5H108Z" stroke="url(#paint0_linear_120_58)" stroke-width="8" stroke-linecap="round" stroke-linejoin="round"/>
<path d="M184.5 224H132.856C129.793 224 127.866 220.698 129.373 218.032L144.518 191.238C146.541 187.658 152 189.094 152 193.206V255" stroke="url(#paint1_linear_120_58)" stroke-width="8" stroke-linecap="round" stroke-linejoin="round"/>
<path d="M193.407 104.786C192.48 100.361 197.436 97.0758 201.151 99.6534L210.944 106.448C212.797 107.734 215.332 106.408 215.333 104.152C215.333 101.607 218.457 100.387 220.182 102.259L226.503 109.12C226.608 109.233 226.776 109.259 226.91 109.182C226.971 109.146 227.02 109.092 227.048 109.026L227.456 108.076C227.997 106.813 229.239 105.993 230.614 105.993H232.099C232.318 105.993 232.534 105.936 232.724 105.826C233.11 105.603 233.348 105.19 233.348 104.744V104.508C233.348 103.318 234.565 102.515 235.66 102.983L236.612 103.392C236.73 103.442 236.865 103.434 236.976 103.37C237.171 103.258 237.42 103.326 237.533 103.521C251.069 127.069 259.557 152.221 261.14 173.493C262.731 194.872 257.219 210.581 245.815 217.165C234.411 223.749 218.05 220.668 200.332 208.601C182.754 196.629 165.269 176.788 151.661 153.384C151.479 153.072 151.585 152.671 151.898 152.49C152.025 152.417 152.124 152.303 152.178 152.167L152.398 151.617C152.68 150.912 153.285 150.384 154.022 150.199L156.594 149.556C157.045 149.443 157.477 149.268 157.879 149.036L158.535 148.658C159.153 148.301 159.689 147.816 160.104 147.234L160.303 146.955C160.978 146.01 161.961 145.33 163.083 145.03L165.67 144.341C166.095 144.228 166.502 144.059 166.882 143.839L166.95 143.801C168.244 143.054 169.136 141.767 169.381 140.293L169.973 136.739C170.447 133.896 173.221 132.041 176.03 132.69L182.893 134.273C183.15 134.333 183.419 134.292 183.647 134.16C183.877 134.027 184.048 133.81 184.124 133.555L185.292 129.582C185.918 127.454 187.871 125.993 190.088 125.993H197.778C197.788 125.993 197.797 125.99 197.806 125.985C197.827 125.973 197.839 125.949 197.833 125.925L193.407 104.786ZM254.904 179.406C254.535 174.449 238.609 171.592 219.333 173.024C200.056 174.457 184.728 179.637 185.096 184.594C185.465 189.551 201.39 192.408 220.667 190.976C239.943 189.543 255.272 184.363 254.904 179.406ZM252.48 136.837C251.653 131.936 231.761 131.204 208.049 135.202C184.338 139.201 165.786 146.415 166.613 151.316C167.44 156.218 187.331 156.95 211.042 152.951C234.754 148.953 253.306 141.738 252.48 136.837Z" fill="url(#paint2_linear_120_58)"/>
<path d="M89.5918 49.8168C97.0866 38.9901 113.195 34.7811 134.371 38.1157C155.297 41.4109 179.48 51.8055 201.715 67.0483C202.157 67.3511 202.266 67.9567 201.961 68.3969C201.776 68.6643 201.738 69.007 201.858 69.309L202.109 69.9379C202.695 71.4017 201.617 72.9936 200.04 72.9936H199.271C198.963 72.9936 198.674 73.1447 198.499 73.3979C198.39 73.555 198.332 73.7419 198.332 73.933V75.0375C198.332 76.5673 197.55 77.9909 196.26 78.812L193.784 80.3871C193.639 80.4796 193.513 80.6 193.415 80.7416C193.155 81.1175 193.113 81.603 193.305 82.018L193.923 83.3569C194.924 85.5251 193.743 88.0743 191.442 88.7133L187.195 89.892C187.104 89.9174 187.025 89.9742 186.971 90.0522C186.908 90.1429 186.885 90.2556 186.907 90.3637L191.696 113.909C192.298 116.868 190.159 119.682 187.146 119.893L166.229 121.36C165.611 121.403 165.046 121.725 164.694 122.235C164.459 122.576 164.332 122.98 164.332 123.394V131.794C164.332 133.745 163.198 135.517 161.428 136.334L152.756 140.336C152.186 140.6 151.696 141.01 151.339 141.527C151.134 141.823 150.977 142.149 150.871 142.493L149.882 145.707C149.535 146.834 148.686 147.736 147.582 148.15L146.649 148.499C146.53 148.544 146.426 148.625 146.354 148.73L146.209 148.939C146.092 149.109 145.859 149.151 145.689 149.033C145.644 149.001 145.598 148.969 145.552 148.937C145.537 148.926 145.517 148.924 145.5 148.93L145.455 148.948C145.418 148.962 145.384 148.919 145.407 148.886C145.42 148.868 145.415 148.842 145.396 148.83C123.212 133.361 104.89 114.329 94.4062 95.8491C83.8286 77.2027 82.0971 60.6439 89.5918 49.8168ZM176.721 73.0385C172.986 69.7593 160.08 78.3469 147.895 92.2202C135.709 106.094 128.857 120 132.592 123.281C136.326 126.561 149.233 117.973 161.419 104.099C173.605 90.2253 180.455 76.3187 176.721 73.0385ZM139.798 54.9389C136.063 51.659 126.088 56.9101 117.518 66.6674C108.948 76.4245 105.028 86.9934 108.762 90.2739C112.496 93.554 122.472 88.3036 131.042 78.5463C139.612 68.7889 143.532 58.2191 139.798 54.9389Z" fill="url(#paint3_linear_120_58)"/>
</g>
<defs>
<filter id="filter0_f_120_58" x="14.2" y="-7.8" width="302.6" height="302.6" filterUnits="userSpaceOnUse" color-interpolation-filters="sRGB">
<feFlood flood-opacity="0" result="BackgroundImageFix"/>
<feBlend mode="normal" in="SourceGraphic" in2="BackgroundImageFix" result="shape"/>
<feGaussianBlur stdDeviation="33.4" result="effect1_foregroundBlur_120_58"/>
</filter>
<linearGradient id="paint0_linear_120_58" x1="79.25" y1="103" x2="79.25" y2="211" gradientUnits="userSpaceOnUse">
<stop stop-color="#F69148"/>
<stop offset="1" stop-color="#FFAB6E"/>
</linearGradient>
<linearGradient id="paint1_linear_120_58" x1="161.25" y1="178" x2="161.25" y2="286" gradientUnits="userSpaceOnUse">
<stop stop-color="#F69148"/>
<stop offset="1" stop-color="#FFAB6E"/>
</linearGradient>
<linearGradient id="paint2_linear_120_58" x1="206.49" y1="98.745" x2="206.49" y2="220.556" gradientUnits="userSpaceOnUse">
<stop stop-color="#FFAB6E"/>
<stop offset="1" stop-color="#F69148"/>
</linearGradient>
<linearGradient id="paint3_linear_120_58" x1="143.636" y1="37.0003" x2="143.636" y2="149.1" gradientUnits="userSpaceOnUse">
<stop stop-color="#F69148"/>
<stop offset="1" stop-color="#FFAB6E"/>
</linearGradient>
<clipPath id="clip0_120_58">
<rect width="300" height="300" fill="white"/>
</clipPath>
</defs>
</svg>
