<svg width="300" height="300" viewBox="0 0 300 300" fill="none" xmlns="http://www.w3.org/2000/svg">
<path d="M59.5916 77.817C67.0864 66.9899 83.1939 62.7811 104.371 66.1158C125.548 69.4505 150.06 80.0553 172.514 95.5982L171.665 96.8228L173.333 100.993H168.779L168.333 101.637V105.493L163.563 108.527L162.996 109.346L165.833 115.493L157.054 117.93L156.873 118.192L162.833 147.493L135.251 149.428L134.333 150.755V162.993L121.886 168.737L121.031 169.971L119.333 175.493L116.466 176.567L115.996 177.247C115.839 177.138 115.683 177.028 115.526 176.92L115.333 176.993L115.43 176.852C93.2301 161.379 74.8959 142.339 64.4071 123.849C53.8292 105.203 52.0969 88.6441 59.5916 77.817Z" fill="url(#paint0_linear_118_8)"/>
<path d="M185.333 137.494V124.994L196.682 137.313L197.005 137.126L198.348 133.994H202.433L203.348 133.464V129.994L206.799 131.472L207.33 131.166C220.984 154.817 229.549 180.114 231.14 201.493C232.732 222.871 227.219 238.581 215.815 245.165C204.411 251.749 188.051 248.668 170.332 236.601C152.613 224.533 134.987 204.467 121.333 180.817L122.094 180.376L122.848 178.494L127.272 177.387L129.475 176.115L131.348 173.494L136.306 172.171L138.994 170.62L140.848 159.494L153.291 162.365L154.008 161.952L156.348 153.994H167.792L167.842 153.964L160.833 120.494L185.333 137.494Z" fill="url(#paint1_linear_118_8)"/>
<defs>
<linearGradient id="paint0_linear_118_8" x1="114.166" y1="65" x2="114.166" y2="177.247" gradientUnits="userSpaceOnUse">
<stop stop-color="#F69148"/>
<stop offset="1" stop-color="#FFAB6E"/>
</linearGradient>
<linearGradient id="paint1_linear_118_8" x1="176.371" y1="120.494" x2="176.371" y2="248.557" gradientUnits="userSpaceOnUse">
<stop stop-color="#F69148"/>
<stop offset="1" stop-color="#FFAB6E"/>
</linearGradient>
</defs>
</svg>
