<svg width="300" height="300" viewBox="0 0 300 300" fill="none" xmlns="http://www.w3.org/2000/svg">
<g clip-path="url(#clip0_120_58)">
<g filter="url(#filter0_f_120_58)">
<circle cx="170.5" cy="139.5" r="84.5" fill="#FFB178" fill-opacity="0.4"/>
</g>
<path d="M89.5919 49.8174C97.0867 38.9904 113.194 34.7815 134.371 38.1162C155.548 41.451 180.06 52.0565 202.514 67.5996L201.665 68.8242L203.333 72.9942H198.779L198.333 73.6387V77.4942L193.563 80.5293L192.996 81.3477L195.833 87.4942L187.054 89.9326L186.873 90.1934L192.833 119.494L165.251 121.429L164.333 122.756V134.994L151.885 140.738L151.032 141.971L149.333 147.494L146.465 148.569L145.996 149.247C145.84 149.139 145.684 149.03 145.527 148.921L145.333 148.994L145.43 148.853C123.23 133.38 104.896 114.339 94.4073 95.8496C83.8294 77.203 82.0971 60.6445 89.5919 49.8174Z" fill="url(#paint0_linear_120_58)"/>
<path d="M215.333 109.494V96.9937L226.682 109.313L227.004 109.126L228.348 105.994H232.433L233.348 105.464V101.994L236.798 103.472L237.33 103.167C250.984 126.817 259.549 152.114 261.14 173.493C262.732 194.872 257.219 210.581 245.815 217.166C234.411 223.749 218.05 220.669 200.332 208.601C182.613 196.533 164.987 176.467 151.333 152.817L152.094 152.376L152.848 150.494L157.272 149.387L159.475 148.115L161.348 145.494L166.306 144.171L168.994 142.62L170.848 131.494L183.291 134.365L184.007 133.952L186.348 125.994H197.792L197.841 125.964L190.833 92.4937L215.333 109.494Z" fill="url(#paint1_linear_120_58)"/>
<path d="M102.5 149H50.8556C47.7926 149 45.8662 145.698 47.3733 143.032L62.5177 116.238C64.541 112.658 70 114.094 70 118.206V188M108 170.5H99.5C95.634 170.5 92.5 173.634 92.5 177.5V192.5C92.5 196.366 95.634 199.5 99.5 199.5H113C116.866 199.5 120 196.366 120 192.5V177.5C120 173.634 116.866 170.5 113 170.5H108Z" stroke="url(#paint2_linear_120_58)" stroke-width="8" stroke-linecap="round" stroke-linejoin="round"/>
<path d="M184.5 224H132.856C129.793 224 127.866 220.698 129.373 218.032L144.518 191.238C146.541 187.658 152 189.094 152 193.206V255" stroke="url(#paint3_linear_120_58)" stroke-width="8" stroke-linecap="round" stroke-linejoin="round"/>
</g>
<defs>
<filter id="filter0_f_120_58" x="19.2" y="-11.8" width="302.6" height="302.6" filterUnits="userSpaceOnUse" color-interpolation-filters="sRGB">
<feFlood flood-opacity="0" result="BackgroundImageFix"/>
<feBlend mode="normal" in="SourceGraphic" in2="BackgroundImageFix" result="shape"/>
<feGaussianBlur stdDeviation="33.4" result="effect1_foregroundBlur_120_58"/>
</filter>
<linearGradient id="paint0_linear_120_58" x1="144.167" y1="37.0004" x2="144.167" y2="149.247" gradientUnits="userSpaceOnUse">
<stop stop-color="#F69148"/>
<stop offset="1" stop-color="#FFAB6E"/>
</linearGradient>
<linearGradient id="paint1_linear_120_58" x1="206.371" y1="92.4937" x2="206.371" y2="220.557" gradientUnits="userSpaceOnUse">
<stop stop-color="#FFAB6E"/>
<stop offset="1" stop-color="#F69148"/>
</linearGradient>
<linearGradient id="paint2_linear_120_58" x1="79.25" y1="103" x2="79.25" y2="211" gradientUnits="userSpaceOnUse">
<stop stop-color="#F69148"/>
<stop offset="1" stop-color="#FFAB6E"/>
</linearGradient>
<linearGradient id="paint3_linear_120_58" x1="161.25" y1="178" x2="161.25" y2="286" gradientUnits="userSpaceOnUse">
<stop stop-color="#F69148"/>
<stop offset="1" stop-color="#FFAB6E"/>
</linearGradient>
<clipPath id="clip0_120_58">
<rect width="300" height="300" fill="white"/>
</clipPath>
</defs>
</svg>
