<svg width="300" height="300" viewBox="0 0 300 300" fill="none" xmlns="http://www.w3.org/2000/svg">
<path d="M89.5919 49.8179C97.0866 38.9907 113.194 34.781 134.371 38.1157C155.548 41.4505 180.06 52.056 202.514 67.5991L201.664 68.8247L203.332 72.9936H198.779L198.332 73.6401V77.4936L193.565 80.5268L192.995 81.3481L195.832 87.4936L187.055 89.9311L186.872 90.1938L192.832 119.494L165.252 121.428L164.332 122.757V134.994L151.886 140.738L151.03 141.973L149.332 147.494L146.465 148.568L145.996 149.247C145.839 149.138 145.684 149.028 145.527 148.919L145.332 148.994L145.43 148.852C123.23 133.379 104.895 114.339 94.4063 95.8491C83.8287 77.2027 82.0973 60.6449 89.5919 49.8179Z" fill="url(#paint0_linear_118_16)"/>
<path d="M215.333 109.494V96.9937L226.682 109.313L227.004 109.126L228.348 105.994H232.433L233.348 105.464V101.994L236.798 103.472L237.33 103.167C250.984 126.817 259.549 152.114 261.14 173.493C262.732 194.872 257.219 210.581 245.815 217.166C234.411 223.749 218.05 220.669 200.332 208.601C182.613 196.533 164.987 176.467 151.333 152.817L152.094 152.376L152.848 150.494L157.272 149.387L159.475 148.115L161.348 145.494L166.306 144.171L168.994 142.62L170.848 131.494L183.291 134.365L184.007 133.952L186.348 125.994H197.792L197.841 125.964L190.833 92.4937L215.333 109.494Z" fill="url(#paint1_linear_118_16)"/>
<path d="M102.5 149H50.8556C47.7926 149 45.8662 145.698 47.3733 143.032L62.5177 116.238C64.541 112.658 70 114.094 70 118.206V188M108 170.5H96.5C94.2909 170.5 92.5 172.291 92.5 174.5V195.5C92.5 197.709 94.2909 199.5 96.5 199.5H116C118.209 199.5 120 197.709 120 195.5V174.5C120 172.291 118.209 170.5 116 170.5H108Z" stroke="url(#paint2_linear_118_16)" stroke-width="8" stroke-linecap="round" stroke-linejoin="round"/>
<path d="M184.5 224H132.856C129.793 224 127.866 220.698 129.373 218.032L144.518 191.238C146.541 187.658 152 189.094 152 193.206V255" stroke="url(#paint3_linear_118_16)" stroke-width="8" stroke-linecap="round" stroke-linejoin="round"/>
<defs>
<linearGradient id="paint0_linear_118_16" x1="144.166" y1="37" x2="144.166" y2="149.247" gradientUnits="userSpaceOnUse">
<stop stop-color="#F69148"/>
<stop offset="1" stop-color="#FFAB6E"/>
</linearGradient>
<linearGradient id="paint1_linear_118_16" x1="206.371" y1="92.4937" x2="206.371" y2="220.557" gradientUnits="userSpaceOnUse">
<stop stop-color="#FFAB6E"/>
<stop offset="1" stop-color="#F69148"/>
</linearGradient>
<linearGradient id="paint2_linear_118_16" x1="79.25" y1="103" x2="79.25" y2="211" gradientUnits="userSpaceOnUse">
<stop stop-color="#F69148"/>
<stop offset="1" stop-color="#FFAB6E"/>
</linearGradient>
<linearGradient id="paint3_linear_118_16" x1="161.25" y1="178" x2="161.25" y2="286" gradientUnits="userSpaceOnUse">
<stop stop-color="#F69148"/>
<stop offset="1" stop-color="#FFAB6E"/>
</linearGradient>
</defs>
</svg>
