<svg width="300" height="300" viewBox="0 0 300 300" fill="none" xmlns="http://www.w3.org/2000/svg">
<g clip-path="url(#clip0_152_4)">
<g filter="url(#filter0_f_152_4)">
<circle cx="165.5" cy="143.5" r="84.5" fill="#FFB178" fill-opacity="0.4"/>
</g>
<path d="M102.5 149H50.8556C47.7926 149 45.8662 145.698 47.3733 143.032L70 103V188M108 170.5H99.5C95.634 170.5 92.5 173.634 92.5 177.5V192.5C92.5 196.366 95.634 199.5 99.5 199.5H113C116.866 199.5 120 196.366 120 192.5V177.5C120 173.634 116.866 170.5 113 170.5H108Z" stroke="url(#paint0_linear_152_4)" stroke-width="8" stroke-linecap="round" stroke-linejoin="round"/>
<path d="M184.5 224H132.856C129.793 224 127.866 220.698 129.373 218.032L152 178V255" stroke="url(#paint1_linear_152_4)" stroke-width="8" stroke-linecap="round" stroke-linejoin="round"/>
<g filter="url(#filter1_i_152_4)">
<path d="M89.5911 49.817C97.0858 38.9901 113.194 34.7804 134.37 38.1149C155.296 41.4101 179.479 51.8057 201.714 67.0485C202.156 67.3511 202.266 67.9553 201.961 68.3951C201.776 68.6621 201.737 69.0046 201.858 69.3063L202.11 69.9362C202.695 71.4003 201.617 72.9925 200.04 72.9928H199.27C198.962 72.993 198.674 73.1444 198.499 73.3971C198.391 73.5537 198.332 73.7399 198.332 73.9303V75.0358C198.332 76.5662 197.55 77.9907 196.259 78.8121L193.782 80.3873C193.638 80.4794 193.513 80.5999 193.415 80.7408C193.156 81.1158 193.113 81.6011 193.304 82.0153L193.923 83.3561C194.924 85.5244 193.744 88.0735 191.443 88.7125L187.195 89.8912C187.104 89.9166 187.024 89.9737 186.97 90.0514C186.908 90.1415 186.885 90.2537 186.906 90.361L191.697 113.908C192.298 116.867 190.159 119.681 187.147 119.892L166.228 121.359C165.611 121.402 165.047 121.724 164.695 122.233C164.459 122.574 164.332 122.978 164.332 123.392V131.794C164.332 133.744 163.199 135.516 161.428 136.334L152.754 140.337C152.185 140.599 151.696 141.01 151.339 141.525C151.135 141.82 150.977 142.146 150.871 142.489L149.882 145.705C149.535 146.832 148.685 147.736 147.58 148.15L146.649 148.5C146.529 148.545 146.426 148.625 146.353 148.73L146.208 148.938C146.091 149.108 145.858 149.151 145.689 149.033C145.643 149.001 145.597 148.969 145.551 148.937C145.536 148.927 145.516 148.924 145.499 148.93L145.455 148.947C145.418 148.961 145.384 148.919 145.406 148.885C145.419 148.867 145.414 148.841 145.396 148.828C123.212 133.359 104.89 114.328 94.4065 95.8483C83.8291 77.2021 82.0965 60.644 89.5911 49.817ZM169.717 68.5992C165.992 65.0468 153.491 72.1079 141.795 84.3707C130.099 96.6336 123.636 109.455 127.361 113.007C131.085 116.56 143.587 109.499 155.283 97.236C166.98 84.973 173.442 72.1518 169.717 68.5992ZM138.64 52.1598C135.345 48.2057 124.464 51.8417 114.337 60.2809C104.21 68.7202 98.671 78.7671 101.966 82.7213C105.261 86.6755 116.143 83.0395 126.27 74.6002C136.397 66.1609 141.935 56.114 138.64 52.1598Z" fill="url(#paint2_linear_152_4)"/>
</g>
<g filter="url(#filter2_i_152_4)">
<path d="M193.407 104.786C192.481 100.361 197.437 97.0761 201.152 99.6537L210.945 106.449C212.799 107.734 215.333 106.408 215.333 104.153C215.333 101.607 218.459 100.387 220.184 102.259L226.503 109.12C226.608 109.233 226.777 109.259 226.91 109.182C226.972 109.146 227.02 109.092 227.048 109.027L227.455 108.077C227.997 106.813 229.24 105.994 230.614 105.993H232.099C232.318 105.993 232.534 105.936 232.724 105.827C233.11 105.603 233.349 105.19 233.349 104.743V104.508C233.349 103.318 234.566 102.515 235.66 102.984L236.612 103.392C236.73 103.442 236.866 103.434 236.977 103.37C237.172 103.259 237.42 103.326 237.532 103.521C251.068 127.069 259.557 152.221 261.141 173.493C262.732 194.872 257.219 210.581 245.816 217.165C234.412 223.749 218.05 220.668 200.331 208.601C182.754 196.63 165.269 176.788 151.661 153.384C151.48 153.072 151.586 152.671 151.899 152.491C152.025 152.417 152.124 152.303 152.179 152.167L152.399 151.618C152.681 150.912 153.285 150.385 154.023 150.201L156.596 149.556C157.046 149.443 157.48 149.269 157.882 149.036L158.535 148.66C159.154 148.303 159.688 147.817 160.104 147.236L160.305 146.954C160.98 146.01 161.962 145.33 163.083 145.031L165.672 144.34C166.096 144.227 166.503 144.059 166.883 143.839L166.949 143.801C168.243 143.054 169.135 141.767 169.381 140.293L169.974 136.74C170.448 133.896 173.222 132.042 176.03 132.69L182.893 134.274C183.149 134.333 183.419 134.292 183.647 134.16C183.878 134.027 184.049 133.81 184.124 133.554L185.293 129.582C185.919 127.455 187.871 125.994 190.089 125.993H197.778C197.788 125.993 197.798 125.991 197.807 125.986C197.828 125.973 197.838 125.948 197.833 125.924L193.407 104.786ZM245.218 174.098C242.67 169.626 232.411 170.668 222.303 176.426C212.195 182.184 206.065 190.477 208.612 194.95C211.16 199.422 221.42 198.38 231.528 192.622C241.637 186.864 247.766 178.57 245.218 174.098ZM234.201 135.616C231.654 131.143 217.651 134.318 202.926 142.705C188.201 151.093 178.329 161.518 180.876 165.991C183.424 170.463 197.426 167.289 212.152 158.902C226.877 150.514 236.749 140.088 234.201 135.616Z" fill="url(#paint3_linear_152_4)"/>
</g>
</g>
<defs>
<filter id="filter0_f_152_4" x="14.2" y="-7.8" width="302.6" height="302.6" filterUnits="userSpaceOnUse" color-interpolation-filters="sRGB">
<feFlood flood-opacity="0" result="BackgroundImageFix"/>
<feBlend mode="normal" in="SourceGraphic" in2="BackgroundImageFix" result="shape"/>
<feGaussianBlur stdDeviation="33.4" result="effect1_foregroundBlur_152_4"/>
</filter>
<filter id="filter1_i_152_4" x="84.9998" y="36.9993" width="121.271" height="117.1" filterUnits="userSpaceOnUse" color-interpolation-filters="sRGB">
<feFlood flood-opacity="0" result="BackgroundImageFix"/>
<feBlend mode="normal" in="SourceGraphic" in2="BackgroundImageFix" result="shape"/>
<feColorMatrix in="SourceAlpha" type="matrix" values="0 0 0 0 0 0 0 0 0 0 0 0 0 0 0 0 0 0 127 0" result="hardAlpha"/>
<feOffset dx="4" dy="5"/>
<feGaussianBlur stdDeviation="10.2"/>
<feComposite in2="hardAlpha" operator="arithmetic" k2="-1" k3="1"/>
<feColorMatrix type="matrix" values="0 0 0 0 0 0 0 0 0 0 0 0 0 0 0 0 0 0 0.25 0"/>
<feBlend mode="normal" in2="shape" result="effect1_innerShadow_152_4"/>
</filter>
<filter id="filter2_i_152_4" x="151.573" y="98.7454" width="113.837" height="126.811" filterUnits="userSpaceOnUse" color-interpolation-filters="sRGB">
<feFlood flood-opacity="0" result="BackgroundImageFix"/>
<feBlend mode="normal" in="SourceGraphic" in2="BackgroundImageFix" result="shape"/>
<feColorMatrix in="SourceAlpha" type="matrix" values="0 0 0 0 0 0 0 0 0 0 0 0 0 0 0 0 0 0 127 0" result="hardAlpha"/>
<feOffset dx="4" dy="5"/>
<feGaussianBlur stdDeviation="10.2"/>
<feComposite in2="hardAlpha" operator="arithmetic" k2="-1" k3="1"/>
<feColorMatrix type="matrix" values="0 0 0 0 0 0 0 0 0 0 0 0 0 0 0 0 0 0 0.25 0"/>
<feBlend mode="normal" in2="shape" result="effect1_innerShadow_152_4"/>
</filter>
<linearGradient id="paint0_linear_152_4" x1="79.25" y1="103" x2="79.25" y2="211" gradientUnits="userSpaceOnUse">
<stop stop-color="#F69148"/>
<stop offset="1" stop-color="#FFAB6E"/>
</linearGradient>
<linearGradient id="paint1_linear_152_4" x1="161.25" y1="178" x2="161.25" y2="286" gradientUnits="userSpaceOnUse">
<stop stop-color="#F69148"/>
<stop offset="1" stop-color="#FFAB6E"/>
</linearGradient>
<linearGradient id="paint2_linear_152_4" x1="143.636" y1="36.9994" x2="143.636" y2="149.1" gradientUnits="userSpaceOnUse">
<stop stop-color="#F69148"/>
<stop offset="1" stop-color="#FFAB6E"/>
</linearGradient>
<linearGradient id="paint3_linear_152_4" x1="206.492" y1="98.7449" x2="206.492" y2="220.557" gradientUnits="userSpaceOnUse">
<stop stop-color="#FFAB6E"/>
<stop offset="1" stop-color="#F69148"/>
</linearGradient>
<clipPath id="clip0_152_4">
<rect width="300" height="300" fill="white"/>
</clipPath>
</defs>
</svg>
