<svg width="170" height="170" viewBox="0 0 170 170" fill="none" xmlns="http://www.w3.org/2000/svg">
<path d="M35 111V63.5747C35 56.0776 41.0776 50 48.5747 50C56.0717 50 62.1493 56.0776 62.1493 63.5747V83.1788C62.1493 95.329 71.999 105.179 84.1493 105.179H85.8507C98.0009 105.179 107.851 95.329 107.851 83.1787V63.5747C107.851 56.0776 113.928 50 121.425 50C128.922 50 135 56.0776 135 63.5747V111C135 123.15 125.15 133 113 133H57C44.8497 133 35 123.15 35 111Z" fill="white" stroke="black" stroke-width="3.5"/>
<path d="M121.5 50H49.5C42.0442 50 36 56.0442 36 63.5C36 70.9558 42.0442 77 49.5 77H121.5C128.956 77 135 70.9558 135 63.5C135 56.0442 128.956 50 121.5 50Z" fill="white" fill-opacity="0.25" stroke="black" stroke-width="3.5"/>
</svg>
