<svg width="170" height="170" viewBox="0 0 170 170" fill="none" xmlns="http://www.w3.org/2000/svg">
<path d="M35 91.5V63.5747C35 56.0776 41.0776 50 48.5747 50C56.0717 50 62.1493 56.0776 62.1493 63.5747V82.3281C62.1493 83.1179 62.1493 83.5129 62.1595 83.8468C62.5127 95.4731 71.855 104.815 83.4813 105.169C83.8152 105.179 84.2102 105.179 85 105.179C85.7898 105.179 86.1848 105.179 86.5187 105.169C98.145 104.815 107.487 95.4731 107.841 83.8468C107.851 83.5129 107.851 83.1179 107.851 82.3281V63.5747C107.851 56.0776 113.928 50 121.425 50C128.922 50 135 56.0776 135 63.5747V91.5C135 109.822 135 118.983 129.881 125.108C129.041 126.113 128.113 127.041 127.108 127.881C120.983 133 111.822 133 93.5 133H76.5C58.1782 133 49.0174 133 42.8921 127.881C41.887 127.041 40.959 126.113 40.119 125.108C35 118.983 35 109.822 35 91.5Z" fill="white" stroke="black" stroke-width="3.5"/>
<path d="M121.5 50H49.5C42.0442 50 36 56.0442 36 63.5C36 70.9558 42.0442 77 49.5 77H121.5C128.956 77 135 70.9558 135 63.5C135 56.0442 128.956 50 121.5 50Z" fill="white" fill-opacity="0.25" stroke="black" stroke-width="3.5"/>
</svg>
